<svg xmlns="http://www.w3.org/2000/svg" xmlns:xlink="http://www.w3.org/1999/xlink" viewBox="0 0 79.06 55.39"><defs><style>.cls-1{fill:url(#linear-gradient);}.cls-2{fill:url(#linear-gradient-2);}.cls-3{fill:url(#linear-gradient-3);}.cls-4{fill:url(#linear-gradient-4);}.cls-5{fill:url(#linear-gradient-5);}.cls-6{fill:url(#linear-gradient-6);}.cls-7{fill:url(#linear-gradient-7);}.cls-8{fill:url(#linear-gradient-8);}.cls-9{fill:url(#linear-gradient-9);}.cls-10{fill:#fff;}.cls-11{fill:url(#linear-gradient-10);}.cls-12{fill:url(#linear-gradient-11);}</style><linearGradient id="linear-gradient" x1="-1275.55" y1="-510.12" x2="-1275.39" y2="-510.12" gradientTransform="matrix(204, 181, 181, -204, 352554.12, 126811.7)" gradientUnits="userSpaceOnUse"><stop offset="0" stop-color="#fe7096"/><stop offset="1" stop-color="#fe8366"/></linearGradient><linearGradient id="linear-gradient-2" x1="-1275.55" y1="-510.02" x2="-1275.39" y2="-510.02" gradientTransform="matrix(204, 181, 181, -204, 352532.84, 126835.69)" xlink:href="#linear-gradient"/><linearGradient id="linear-gradient-3" x1="-1275.55" y1="-510.11" x2="-1275.39" y2="-510.11" gradientTransform="matrix(204, 181, 181, -204, 352552.28, 126813.77)" xlink:href="#linear-gradient"/><linearGradient id="linear-gradient-4" x1="-1275.55" y1="-510.23" x2="-1275.39" y2="-510.23" gradientTransform="matrix(204, 181, 181, -204, 352577.3, 126785.58)" xlink:href="#linear-gradient"/><linearGradient id="linear-gradient-5" x1="-1275.55" y1="-510.42" x2="-1275.39" y2="-510.42" gradientTransform="matrix(204, 181, 181, -204, 352617.74, 126740)" xlink:href="#linear-gradient"/><linearGradient id="linear-gradient-6" x1="-1275.55" y1="-510.34" x2="-1275.39" y2="-510.34" gradientTransform="matrix(204, 181, 181, -204, 352601.27, 126758.56)" xlink:href="#linear-gradient"/><linearGradient id="linear-gradient-7" x1="-1275.55" y1="-510.41" x2="-1275.39" y2="-510.41" gradientTransform="matrix(204, 181, 181, -204, 352617.56, 126740.2)" xlink:href="#linear-gradient"/><linearGradient id="linear-gradient-8" x1="-1275.55" y1="-510.36" x2="-1275.39" y2="-510.36" gradientTransform="matrix(204, 181, 181, -204, 352605.65, 126753.62)" xlink:href="#linear-gradient"/><linearGradient id="linear-gradient-9" x1="-1275.52" y1="-510.15" x2="-1275.37" y2="-510.15" gradientTransform="matrix(204, 181, 181, -204, 352555.92, 126809.67)" xlink:href="#linear-gradient"/><linearGradient id="linear-gradient-10" x1="11.95" y1="33.93" x2="11.95" y2="33.93" gradientTransform="matrix(0, 0, 0, 0, 72.21, -139.44)" xlink:href="#linear-gradient"/><linearGradient id="linear-gradient-11" x1="-1334.79" y1="-681.91" x2="-1334.63" y2="-681.91" gradientTransform="matrix(1, 0, 0, -1, 1346.66, -647.98)" xlink:href="#linear-gradient"/></defs><title>logo</title><g id="Layer_2" data-name="Layer 2"><g id="Layer_1-2" data-name="Layer 1"><circle class="cls-1" cx="21.46" cy="11.47" r="2.26"/><line class="cls-2" x1="25.61" y1="23" x2="28.11" y2="23"/><polyline class="cls-3" points="31.29 22.37 32.43 21.9 33.41 21.05"/><polyline class="cls-4" points="36.06 18.73 36.88 17.81 37.39 16.61"/><polyline class="cls-5" points="36.17 3.9 36.99 4.83 37.5 6.02"/><polyline class="cls-6" points="38.28 9.94 38.48 11.43 38.23 12.94"/><polyline class="cls-7" points="31.36 0.45 32.51 0.92 33.48 1.77"/><line class="cls-8" x1="25.67" x2="28.17"/><path class="cls-9" d="M9.44,9.38V32.72c.12,2.55.61,4.13,2.43,4.38H27.23a16,16,0,0,0,0-32V5H11.87C10.05,5.49,9.69,6.22,9.44,9.38Z"/><path class="cls-10" d="M21.46,18.79v.63a1.63,1.63,0,1,1-1.15.48,1.62,1.62,0,0,1,1.15-.48V18.16a2.89,2.89,0,1,0,2,.85,2.88,2.88,0,0,0-2-.85Z"/><polygon class="cls-10" points="19.2 37.1 20.67 37.1 29.46 21.05 20.67 5 19.21 5 27.99 21.05 19.2 37.1"/><path class="cls-10" d="M25.61,33.29h2.5a.71.71,0,0,0,0-1.41h-2.5A.71.71,0,0,0,25.61,33.29Z"/><path class="cls-10" d="M31.47,32.63a7.29,7.29,0,0,0,1.39-.6,12.6,12.6,0,0,0,1-.91c.69-.6-.32-1.6-1-1l-1,.85.31-.18-1.15.47a.73.73,0,0,0-.49.87A.71.71,0,0,0,31.47,32.63Z"/><path class="cls-10" d="M36.56,28.81a7.45,7.45,0,0,0,.94-1.07,10.22,10.22,0,0,0,.5-1.2.73.73,0,0,0-.25-1,.71.71,0,0,0-1,.25l-.24.56c0,.09-.3.54-.27.63s.18-.21,0,0l-.3.34-.41.46C35,28.49,35.95,29.49,36.56,28.81Z"/><path class="cls-10" d="M35.67,14l.41.46.28.32c.21.23,0,0,0,0a2.94,2.94,0,0,0,.27.63l.24.56a.71.71,0,0,0,1,.25.73.73,0,0,0,.25-1A9.78,9.78,0,0,0,37.6,14,7.67,7.67,0,0,0,36.67,13C36.06,12.3,35.06,13.31,35.67,14Z"/><path class="cls-10" d="M37.59,19.71l.1.74.07.49c.06.46-.06,0,0-.11-.1.1-.1.61-.13.74l-.13.75c-.15.89,1.21,1.27,1.36.38a15.38,15.38,0,0,0,.27-1.6A9.28,9.28,0,0,0,39,19.33C38.83,18.44,37.47,18.82,37.59,19.71Z"/><path class="cls-10" d="M31.17,10.71l1.15.47L32,11l1,.85c.68.6,1.69-.4,1-1a12.66,12.66,0,0,0-1-.91,7.27,7.27,0,0,0-1.39-.6.71.71,0,0,0-.87.49A.73.73,0,0,0,31.17,10.71Z"/><path class="cls-10" d="M25.67,10.29h2.5a.71.71,0,0,0,0-1.41h-2.5A.71.71,0,0,0,25.67,10.29Z"/><line class="cls-11" x1="11.95" y1="15.14" x2="11.95" y2="52.72"/><path class="cls-12" d="M10.77,15.14V52.72a1.18,1.18,0,0,0,2.36,0V15.14A1.18,1.18,0,0,0,10.77,15.14Z"/><path class="cls-10" d="M75.74,35.27q.57,0,.57,1.52a7.15,7.15,0,0,1-.76,3,8.79,8.79,0,0,1-2.28,2.95A35.84,35.84,0,0,1,74,38.91a13.71,13.71,0,0,1,.9-2.68Q75.35,35.27,75.74,35.27Zm.41,10.45q2.91,0,2.91-1.78a1,1,0,0,0-.18-.67.82.82,0,0,0-.59-.18H75.4a9,9,0,0,0,3.34-6.95,4.31,4.31,0,0,0-.62-2.39,1.93,1.93,0,0,0-1.7-1,3.71,3.71,0,0,0-2.74,1.39,11.67,11.67,0,0,0-2.17,3.73,25,25,0,0,0-1.34,5.17H68.71q-1.16,0-1.16,1.44a1.27,1.27,0,0,0,.27.9,1.44,1.44,0,0,0,1,.28h1q-.08,1.16-.08,2.29a11,11,0,0,0,1.13,5.34,3.8,3.8,0,0,0,3.58,2,4.63,4.63,0,0,0,3-1.11,1.91,1.91,0,0,0,.58-.77,2.45,2.45,0,0,0,.19-1,1.7,1.7,0,0,0-.19-.84.57.57,0,0,0-.5-.35.85.85,0,0,0-.57.26,4.08,4.08,0,0,1-1,.67,2.44,2.44,0,0,1-1,.26,1.69,1.69,0,0,1-1.25-.45,2.81,2.81,0,0,1-.64-1.49A16.78,16.78,0,0,1,73,47.72q0-.72.05-2ZM62,45.79a.94.94,0,0,1,.73.3,1.12,1.12,0,0,1,.27.78,2.12,2.12,0,0,1-.87,1.67,5.84,5.84,0,0,1-2.39,1.08v-.05a5.16,5.16,0,0,1,.66-2.68A1.89,1.89,0,0,1,62,45.79Zm6.48,3.73a.9.9,0,0,0-.69.36A8.71,8.71,0,0,1,65.2,52a5.63,5.63,0,0,1-2.64.81,2.53,2.53,0,0,1-2.44-1.18,9.21,9.21,0,0,0,4.31-2,4.16,4.16,0,0,0,1.27-3,3.22,3.22,0,0,0-.9-2.41,3.26,3.26,0,0,0-2.39-.89,5.21,5.21,0,0,0-3,.9,6.11,6.11,0,0,0-2.07,2.43,7.44,7.44,0,0,0-.75,3.31,5.37,5.37,0,0,0,1.49,4,5.73,5.73,0,0,0,4.19,1.47,7.46,7.46,0,0,0,3.72-1,9.4,9.4,0,0,0,2.69-2.14,2.37,2.37,0,0,0,.49-1.6,1.6,1.6,0,0,0-.19-.85A.59.59,0,0,0,68.46,49.52Zm-20-15.9q.33,0,.51.44a3.45,3.45,0,0,1,.18,1.26,9.55,9.55,0,0,1-1,4,18.4,18.4,0,0,1-2.64,4.09,47.68,47.68,0,0,1,.86-4.9,22.43,22.43,0,0,1,1.09-3.58Q48,33.62,48.44,33.62Zm8.23,15.9a.9.9,0,0,0-.69.36,17,17,0,0,1-2,2.06,2.4,2.4,0,0,1-1.54.62,2,2,0,0,1-1.27-.42A1.7,1.7,0,0,1,50.58,51,6.16,6.16,0,0,0,53,48.9a4.9,4.9,0,0,0,.72-2.6A3.12,3.12,0,0,0,53,44.14a2.65,2.65,0,0,0-2.07-.87,4.62,4.62,0,0,0-3,1.45,12.18,12.18,0,0,0-2.83,4.67q0-1.41.08-2.75a34.86,34.86,0,0,0,4.94-6.52,11.27,11.27,0,0,0,1.52-5.39,4.4,4.4,0,0,0-.73-2.64,2.26,2.26,0,0,0-1.92-1q-2.21,0-3.79,2.92a24.82,24.82,0,0,0-2.39,7.22A44.56,44.56,0,0,0,42,49.47q0,2.34.13,3.55a4.21,4.21,0,0,0,.5,1.79,1.29,1.29,0,0,0,1.17.58A1.48,1.48,0,0,0,45,55a4,4,0,0,0,.66-1.63,18.49,18.49,0,0,1,1.13-3.25,11.42,11.42,0,0,1,1.56-2.59,2.23,2.23,0,0,1,1.53-1,.6.6,0,0,1,.48.23,1.07,1.07,0,0,1,.19.69A2,2,0,0,1,50,48.76a4.59,4.59,0,0,1-1.62,1,1.49,1.49,0,0,0-1,1.44,3.93,3.93,0,0,0,1.21,3,4.48,4.48,0,0,0,3.19,1.13,4.68,4.68,0,0,0,2.8-.85,12.5,12.5,0,0,0,2.34-2.26,2.37,2.37,0,0,0,.49-1.6,1.6,1.6,0,0,0-.19-.85A.59.59,0,0,0,56.67,49.52Zm-21.1,5.87a7.5,7.5,0,0,0,3.25-.81,8.35,8.35,0,0,0,2.89-2.3,2.49,2.49,0,0,0,.49-1.6,1.6,1.6,0,0,0-.19-.85.59.59,0,0,0-.53-.31.9.9,0,0,0-.69.36A9.28,9.28,0,0,1,38.4,52a4.59,4.59,0,0,1-2.28.71q-2.6,0-2.6-3a6.08,6.08,0,0,1,.31-2,3.75,3.75,0,0,1,.82-1.43,1.53,1.53,0,0,1,1.11-.53.62.62,0,0,1,.48.18.73.73,0,0,1,.17.51,2.29,2.29,0,0,1-.13.72l-.08.33a1.9,1.9,0,0,0-.05.41.77.77,0,0,0,.3.64,1.24,1.24,0,0,0,.78.23,1.43,1.43,0,0,0,1.25-.75,3.33,3.33,0,0,0,.48-1.83,3,3,0,0,0-.78-2.15,2.87,2.87,0,0,0-2.2-.84,5,5,0,0,0-2.75.85,6.27,6.27,0,0,0-2.14,2.42,7.75,7.75,0,0,0-.82,3.65A5.15,5.15,0,0,0,31.65,54,5.25,5.25,0,0,0,35.58,55.39ZM22.07,52.66a1.6,1.6,0,0,1-1.3-.75,3.59,3.59,0,0,1-.55-2.16A4.88,4.88,0,0,1,20.9,47a2,2,0,0,1,1.71-1h.13a4.46,4.46,0,0,0-.08.82,4.19,4.19,0,0,0,.42,1.85,3.55,3.55,0,0,0,1.22,1.42A3.72,3.72,0,0,1,23.5,52,1.87,1.87,0,0,1,22.07,52.66Zm8.44-5.3a1.52,1.52,0,0,0-.36.05,15.58,15.58,0,0,1-2.88.51,5.79,5.79,0,0,0-1.4-3.33,4,4,0,0,0-3.15-1.35,5.18,5.18,0,0,0-2.91.86,5.86,5.86,0,0,0-2.06,2.39A7.85,7.85,0,0,0,17,50a6.34,6.34,0,0,0,.57,2.68,4.73,4.73,0,0,0,1.66,2,4.56,4.56,0,0,0,2.64.75,4.75,4.75,0,0,0,3.27-1.3,6.42,6.42,0,0,0,1.93-3.46,11.71,11.71,0,0,0,3.4-.62q.75-.23.75-1.47a1.78,1.78,0,0,0-.18-.85A.56.56,0,0,0,30.51,47.36Z"/><path class="cls-10" d="M0,21.9a2,2,0,0,0,.65,1.48A2.11,2.11,0,0,0,2.15,24a2.07,2.07,0,0,0,1.48-.58,2,2,0,0,0,.62-1.51,1.92,1.92,0,0,0-.62-1.45,2.07,2.07,0,0,0-1.48-.58,2.18,2.18,0,0,0-1.51.58A1.87,1.87,0,0,0,0,21.9Zm.62,8.86V54.81H3.51V30.76Z"/></g></g></svg>